<?xml version="1.0" encoding="UTF-8"?>
<svg xmlns="http://www.w3.org/2000/svg" xmlns:xlink="http://www.w3.org/1999/xlink" fill-opacity="1" color-rendering="auto" color-interpolation="auto" stroke="black" text-rendering="auto" stroke-linecap="square" width="296" stroke-miterlimit="10" stroke-opacity="1" shape-rendering="auto" fill="black" stroke-dasharray="none" font-weight="normal" stroke-width="1" height="254" font-family="'Dialog'" font-style="normal" stroke-linejoin="miter" font-size="12" stroke-dashoffset="0" image-rendering="auto">
  <!--Generated by ySVG-->
  <defs id="genericDefs"/>
  <g>
    <defs id="defs1">
      <clipPath clipPathUnits="userSpaceOnUse" id="clipPath1">
        <path d="M0 0 L296 0 L296 254 L0 254 L0 0 Z"/>
      </clipPath>
      <clipPath clipPathUnits="userSpaceOnUse" id="clipPath2">
        <path d="M66 45 L362 45 L362 299 L66 299 L66 45 Z"/>
      </clipPath>
    </defs>
    <g fill="white" transform="translate(-66,-45)" stroke="white">
      <rect x="66" width="296" height="254" y="45" clip-path="url(#clipPath2)" stroke="none"/>
    </g>
    <g font-size="13" stroke-miterlimit="1.45" font-family="sans-serif" transform="matrix(1,0,0,1,-66,-45)" stroke-linecap="butt">
      <text x="92.385" xml:space="preserve" y="84.1067" clip-path="url(#clipPath2)" stroke="none">1</text>
      <rect fill="none" x="81" width="30" height="30" y="64" clip-path="url(#clipPath2)"/>
      <text x="92.385" xml:space="preserve" y="131.1067" clip-path="url(#clipPath2)" stroke="none">2</text>
      <rect fill="none" x="81" width="30" height="30" y="111" clip-path="url(#clipPath2)"/>
      <text x="92.385" xml:space="preserve" y="178.1067" clip-path="url(#clipPath2)" stroke="none">3</text>
      <rect fill="none" x="81" width="30" height="30" y="158" clip-path="url(#clipPath2)"/>
      <text x="92.385" xml:space="preserve" y="225.1067" clip-path="url(#clipPath2)" stroke="none">4</text>
      <rect fill="none" x="81" width="30" height="30" y="205" clip-path="url(#clipPath2)"/>
      <text x="93.385" xml:space="preserve" y="272.1067" clip-path="url(#clipPath2)" stroke="none">5</text>
      <rect fill="none" x="82" width="30" height="30" y="252" clip-path="url(#clipPath2)"/>
      <rect fill="none" x="135" width="212" height="33.5" y="60.5" clip-path="url(#clipPath2)"/>
      <text x="224.3818" xml:space="preserve" y="131.1067" clip-path="url(#clipPath2)" stroke="none">NULL</text>
      <rect fill="none" x="135" width="212" height="33.5" y="109.25" clip-path="url(#clipPath2)"/>
      <rect fill="none" x="135" width="212" height="33.5" y="203.25" clip-path="url(#clipPath2)"/>
      <rect fill="none" x="135" width="212" height="33.5" y="250.25" clip-path="url(#clipPath2)"/>
      <rect fill="none" x="135" width="212" height="33.5" y="156.25" clip-path="url(#clipPath2)"/>
      <text x="151.1223" xml:space="preserve" y="82.3567" clip-path="url(#clipPath2)" stroke="none">{1,5}</text>
      <rect fill="none" x="141" width="47" height="25" y="64.75" clip-path="url(#clipPath2)"/>
      <text x="212.1223" xml:space="preserve" y="82.3567" clip-path="url(#clipPath2)" stroke="none">{3,1}</text>
      <rect fill="none" x="202" width="47" height="25" y="64.75" clip-path="url(#clipPath2)"/>
      <text x="273.1223" xml:space="preserve" y="82.3567" clip-path="url(#clipPath2)" stroke="none">{5,2}</text>
      <rect fill="none" x="263" width="47" height="25" y="64.75" clip-path="url(#clipPath2)"/>
      <text x="151.1223" xml:space="preserve" y="178.1067" clip-path="url(#clipPath2)" stroke="none">{1,3}</text>
      <rect fill="none" x="141" width="47" height="25" y="160.5" clip-path="url(#clipPath2)"/>
      <text x="151.1223" xml:space="preserve" y="225.1067" clip-path="url(#clipPath2)" stroke="none">{2,3}</text>
      <rect fill="none" x="141" width="47" height="25" y="207.5" clip-path="url(#clipPath2)"/>
      <text x="208.1223" xml:space="preserve" y="225.1067" clip-path="url(#clipPath2)" stroke="none">{4,1}</text>
      <rect fill="none" x="198" width="47" height="25" y="207.5" clip-path="url(#clipPath2)"/>
      <text x="152.1223" xml:space="preserve" y="272.1067" clip-path="url(#clipPath2)" stroke="none">{2,8}</text>
      <rect fill="none" x="142" width="47" height="25" y="254.5" clip-path="url(#clipPath2)"/>
      <text x="265.1223" xml:space="preserve" y="225.1067" clip-path="url(#clipPath2)" stroke="none">{5,3}</text>
      <rect fill="none" x="255" width="47" height="25" y="207.5" clip-path="url(#clipPath2)"/>
      <path fill="none" d="M96 94 L96 103" clip-path="url(#clipPath2)"/>
      <path d="M96 111 L101 99 L96 102 L91 99 Z" clip-path="url(#clipPath2)" stroke="none"/>
      <path fill="none" d="M96 141 L96 150" clip-path="url(#clipPath2)"/>
      <path d="M96 158 L101 146 L96 149 L91 146 Z" clip-path="url(#clipPath2)" stroke="none"/>
      <path fill="none" d="M96 188 L96 197" clip-path="url(#clipPath2)"/>
      <path d="M96 205 L101 193 L96 196 L91 193 Z" clip-path="url(#clipPath2)" stroke="none"/>
      <path fill="none" d="M96.3191 235 L96.5107 244.0018" clip-path="url(#clipPath2)"/>
      <path d="M96.6808 252 L101.4245 239.8964 L96.4894 243.002 L91.4267 240.1091 Z" clip-path="url(#clipPath2)" stroke="none"/>
      <path fill="none" d="M111 126 L127 126" clip-path="url(#clipPath2)"/>
      <path d="M135 126 L123 121 L126 126 L123 131 Z" clip-path="url(#clipPath2)" stroke="none"/>
      <path fill="none" d="M111 220 L127 220" clip-path="url(#clipPath2)"/>
      <path d="M135 220 L123 215 L126 220 L123 225 Z" clip-path="url(#clipPath2)" stroke="none"/>
      <path fill="none" d="M112 267 L127 267" clip-path="url(#clipPath2)"/>
      <path d="M135 267 L123 262 L126 267 L123 272 Z" clip-path="url(#clipPath2)" stroke="none"/>
      <path fill="none" d="M111 173 L127 173" clip-path="url(#clipPath2)"/>
      <path d="M135 173 L123 168 L126 173 L123 178 Z" clip-path="url(#clipPath2)" stroke="none"/>
      <path fill="none" d="M111 78.6168 L133.0026 78.0547" clip-path="url(#clipPath2)"/>
      <path d="M141 77.8504 L128.8762 73.1585 L132.0029 78.0802 L129.1316 83.1552 Z" clip-path="url(#clipPath2)" stroke="none"/>
    </g>
  </g>
</svg>
